<?xml version="1.0" encoding="utf-8"?>
<!-- Generator: Adobe Illustrator 16.0.3, SVG Export Plug-In . SVG Version: 6.00 Build 0)  -->
<!DOCTYPE svg PUBLIC "-//W3C//DTD SVG 1.1//EN" "http://www.w3.org/Graphics/SVG/1.1/DTD/svg11.dtd">
<svg version="1.1" id="Layer_1" xmlns="http://www.w3.org/2000/svg" xmlns:xlink="http://www.w3.org/1999/xlink" x="0px" y="0px"
	 width="243.667px" height="248px" viewBox="4.333 0 243.667 248" enable-background="new 4.333 0 243.667 248"
	 xml:space="preserve">
<title>QR Code</title>
<desc>http://www.charlespattyn.be/tfe/app/</desc>
<rect fill="#FFFFFF" width="248" height="248"/>
<g id="elements">
	<path d="M8,8h8v8H8V8z M16,8h8v8h-8V8z M24,8h8v8h-8V8z M32,8h8v8h-8V8z M40,8h8v8h-8V8z M48,8h8v8h-8V8z M56,8h8v8h-8V8z M88,8h8
		v8h-8V8z M104,8h8v8h-8V8z M112,8h8v8h-8V8z M128,8h8v8h-8V8z M144,8h8v8h-8V8z M160,8h8v8h-8V8z M168,8h8v8h-8V8z M184,8h8v8h-8V8
		z M192,8h8v8h-8V8z M200,8h8v8h-8V8z M208,8h8v8h-8V8z M216,8h8v8h-8V8z M224,8h8v8h-8V8z M232,8h8v8h-8V8z M8,16h8v8H8V16z M56,16
		h8v8h-8V16z M72,16h8v8h-8V16z M88,16h8v8h-8V16z M112,16h8v8h-8V16z M120,16h8v8h-8V16z M128,16h8v8h-8V16z M136,16h8v8h-8V16z
		 M152,16h8v8h-8V16z M184,16h8v8h-8V16z M232,16h8v8h-8V16z M8,24h8v8H8V24z M24,24h8v8h-8V24z M32,24h8v8h-8V24z M40,24h8v8h-8V24
		z M56,24h8v8h-8V24z M104,24h8v8h-8V24z M112,24h8v8h-8V24z M136,24h8v8h-8V24z M168,24h8v8h-8V24z M184,24h8v8h-8V24z M200,24h8v8
		h-8V24z M208,24h8v8h-8V24z M216,24h8v8h-8V24z M232,24h8v8h-8V24z M8,32h8v8H8V32z M24,32h8v8h-8V32z M32,32h8v8h-8V32z M40,32h8
		v8h-8V32z M56,32h8v8h-8V32z M72,32h8v8h-8V32z M80,32h8v8h-8V32z M88,32h8v8h-8V32z M104,32h8v8h-8V32z M120,32h8v8h-8V32z
		 M144,32h8v8h-8V32z M168,32h8v8h-8V32z M184,32h8v8h-8V32z M200,32h8v8h-8V32z M208,32h8v8h-8V32z M216,32h8v8h-8V32z M232,32h8v8
		h-8V32z M8,40h8v8H8V40z M24,40h8v8h-8V40z M32,40h8v8h-8V40z M40,40h8v8h-8V40z M56,40h8v8h-8V40z M80,40h8v8h-8V40z M144,40h8v8
		h-8V40z M152,40h8v8h-8V40z M160,40h8v8h-8V40z M168,40h8v8h-8V40z M184,40h8v8h-8V40z M200,40h8v8h-8V40z M208,40h8v8h-8V40z
		 M216,40h8v8h-8V40z M232,40h8v8h-8V40z M8,48h8v8H8V48z M56,48h8v8h-8V48z M72,48h8v8h-8V48z M80,48h8v8h-8V48z M96,48h8v8h-8V48z
		 M104,48h8v8h-8V48z M128,48h8v8h-8V48z M144,48h8v8h-8V48z M184,48h8v8h-8V48z M232,48h8v8h-8V48z M8,56h8v8H8V56z M16,56h8v8h-8
		V56z M24,56h8v8h-8V56z M32,56h8v8h-8V56z M40,56h8v8h-8V56z M48,56h8v8h-8V56z M56,56h8v8h-8V56z M72,56h8v8h-8V56z M88,56h8v8h-8
		V56z M104,56h8v8h-8V56z M120,56h8v8h-8V56z M136,56h8v8h-8V56z M152,56h8v8h-8V56z M168,56h8v8h-8V56z M184,56h8v8h-8V56z M192,56
		h8v8h-8V56z M200,56h8v8h-8V56z M208,56h8v8h-8V56z M216,56h8v8h-8V56z M224,56h8v8h-8V56z M232,56h8v8h-8V56z M80,64h8v8h-8V64z
		 M88,64h8v8h-8V64z M96,64h8v8h-8V64z M120,64h8v8h-8V64z M128,64h8v8h-8V64z M152,64h8v8h-8V64z M168,64h8v8h-8V64z M8,72h8v8H8
		V72z M16,72h8v8h-8V72z M24,72h8v8h-8V72z M32,72h8v8h-8V72z M40,72h8v8h-8V72z M56,72h8v8h-8V72z M64,72h8v8h-8V72z M72,72h8v8h-8
		V72z M80,72h8v8h-8V72z M96,72h8v8h-8V72z M128,72h8v8h-8V72z M136,72h8v8h-8V72z M144,72h8v8h-8V72z M152,72h8v8h-8V72z M168,72h8
		v8h-8V72z M176,72h8v8h-8V72z M192,72h8v8h-8V72z M208,72h8v8h-8V72z M224,72h8v8h-8V72z M32,80h8v8h-8V80z M40,80h8v8h-8V80z
		 M88,80h8v8h-8V80z M104,80h8v8h-8V80z M112,80h8v8h-8V80z M120,80h8v8h-8V80z M136,80h8v8h-8V80z M144,80h8v8h-8V80z M152,80h8v8
		h-8V80z M160,80h8v8h-8V80z M168,80h8v8h-8V80z M176,80h8v8h-8V80z M184,80h8v8h-8V80z M192,80h8v8h-8V80z M200,80h8v8h-8V80z
		 M232,80h8v8h-8V80z M16,88h8v8h-8V88z M24,88h8v8h-8V88z M32,88h8v8h-8V88z M40,88h8v8h-8V88z M48,88h8v8h-8V88z M56,88h8v8h-8V88
		z M64,88h8v8h-8V88z M72,88h8v8h-8V88z M88,88h8v8h-8V88z M112,88h8v8h-8V88z M120,88h8v8h-8V88z M128,88h8v8h-8V88z M144,88h8v8
		h-8V88z M168,88h8v8h-8V88z M176,88h8v8h-8V88z M184,88h8v8h-8V88z M192,88h8v8h-8V88z M24,96h8v8h-8V96z M48,96h8v8h-8V96z M64,96
		h8v8h-8V96z M104,96h8v8h-8V96z M112,96h8v8h-8V96z M128,96h8v8h-8V96z M152,96h8v8h-8V96z M176,96h8v8h-8V96z M200,96h8v8h-8V96z
		 M224,96h8v8h-8V96z M32,104h8v8h-8V104z M48,104h8v8h-8V104z M56,104h8v8h-8V104z M72,104h8v8h-8V104z M80,104h8v8h-8V104z
		 M88,104h8v8h-8V104z M104,104h8v8h-8V104z M120,104h8v8h-8V104z M128,104h8v8h-8V104z M136,104h8v8h-8V104z M144,104h8v8h-8V104z
		 M208,104h8v8h-8V104z M216,104h8v8h-8V104z M16,112h8v8h-8V112z M32,112h8v8h-8V112z M48,112h8v8h-8V112z M72,112h8v8h-8V112z
		 M80,112h8v8h-8V112z M136,112h8v8h-8V112z M152,112h8v8h-8V112z M160,112h8v8h-8V112z M168,112h8v8h-8V112z M176,112h8v8h-8V112z
		 M184,112h8v8h-8V112z M192,112h8v8h-8V112z M200,112h8v8h-8V112z M216,112h8v8h-8V112z M232,112h8v8h-8V112z M16,120h8v8h-8V120z
		 M56,120h8v8h-8V120z M80,120h8v8h-8V120z M88,120h8v8h-8V120z M96,120h8v8h-8V120z M104,120h8v8h-8V120z M128,120h8v8h-8V120z
		 M136,120h8v8h-8V120z M144,120h8v8h-8V120z M152,120h8v8h-8V120z M176,120h8v8h-8V120z M216,120h8v8h-8V120z M24,128h8v8h-8V128z
		 M40,128h8v8h-8V128z M48,128h8v8h-8V128z M72,128h8v8h-8V128z M96,128h8v8h-8V128z M120,128h8v8h-8V128z M128,128h8v8h-8V128z
		 M152,128h8v8h-8V128z M192,128h8v8h-8V128z M224,128h8v8h-8V128z M8,136h8v8H8V136z M24,136h8v8h-8V136z M48,136h8v8h-8V136z
		 M56,136h8v8h-8V136z M64,136h8v8h-8V136z M88,136h8v8h-8V136z M96,136h8v8h-8V136z M128,136h8v8h-8V136z M144,136h8v8h-8V136z
		 M168,136h8v8h-8V136z M216,136h8v8h-8V136z M8,144h8v8H8V144z M16,144h8v8h-8V144z M24,144h8v8h-8V144z M48,144h8v8h-8V144z
		 M88,144h8v8h-8V144z M104,144h8v8h-8V144z M112,144h8v8h-8V144z M120,144h8v8h-8V144z M136,144h8v8h-8V144z M152,144h8v8h-8V144z
		 M160,144h8v8h-8V144z M168,144h8v8h-8V144z M184,144h8v8h-8V144z M200,144h8v8h-8V144z M208,144h8v8h-8V144z M216,144h8v8h-8V144z
		 M232,144h8v8h-8V144z M8,152h8v8H8V152z M32,152h8v8h-8V152z M56,152h8v8h-8V152z M112,152h8v8h-8V152z M120,152h8v8h-8V152z
		 M128,152h8v8h-8V152z M136,152h8v8h-8V152z M168,152h8v8h-8V152z M176,152h8v8h-8V152z M192,152h8v8h-8V152z M208,152h8v8h-8V152z
		 M216,152h8v8h-8V152z M8,160h8v8H8V160z M40,160h8v8h-8V160z M88,160h8v8h-8V160z M104,160h8v8h-8V160z M112,160h8v8h-8V160z
		 M136,160h8v8h-8V160z M160,160h8v8h-8V160z M176,160h8v8h-8V160z M184,160h8v8h-8V160z M192,160h8v8h-8V160z M200,160h8v8h-8V160z
		 M224,160h8v8h-8V160z M8,168h8v8H8V168z M32,168h8v8h-8V168z M48,168h8v8h-8V168z M56,168h8v8h-8V168z M80,168h8v8h-8V168z
		 M88,168h8v8h-8V168z M104,168h8v8h-8V168z M120,168h8v8h-8V168z M144,168h8v8h-8V168z M152,168h8v8h-8V168z M168,168h8v8h-8V168z
		 M176,168h8v8h-8V168z M184,168h8v8h-8V168z M192,168h8v8h-8V168z M200,168h8v8h-8V168z M216,168h8v8h-8V168z M224,168h8v8h-8V168z
		 M232,168h8v8h-8V168z M72,176h8v8h-8V176z M80,176h8v8h-8V176z M144,176h8v8h-8V176z M152,176h8v8h-8V176z M160,176h8v8h-8V176z
		 M168,176h8v8h-8V176z M200,176h8v8h-8V176z M208,176h8v8h-8V176z M216,176h8v8h-8V176z M224,176h8v8h-8V176z M232,176h8v8h-8V176z
		 M8,184h8v8H8V184z M16,184h8v8h-8V184z M24,184h8v8h-8V184z M32,184h8v8h-8V184z M40,184h8v8h-8V184z M48,184h8v8h-8V184z M56,184
		h8v8h-8V184z M72,184h8v8h-8V184z M96,184h8v8h-8V184z M104,184h8v8h-8V184z M128,184h8v8h-8V184z M136,184h8v8h-8V184z M144,184h8
		v8h-8V184z M160,184h8v8h-8V184z M168,184h8v8h-8V184z M184,184h8v8h-8V184z M200,184h8v8h-8V184z M208,184h8v8h-8V184z M216,184h8
		v8h-8V184z M8,192h8v8H8V192z M56,192h8v8h-8V192z M80,192h8v8h-8V192z M96,192h8v8h-8V192z M120,192h8v8h-8V192z M128,192h8v8h-8
		V192z M136,192h8v8h-8V192z M160,192h8v8h-8V192z M168,192h8v8h-8V192z M200,192h8v8h-8V192z M208,192h8v8h-8V192z M224,192h8v8h-8
		V192z M8,200h8v8H8V200z M24,200h8v8h-8V200z M32,200h8v8h-8V200z M40,200h8v8h-8V200z M56,200h8v8h-8V200z M72,200h8v8h-8V200z
		 M88,200h8v8h-8V200z M96,200h8v8h-8V200z M128,200h8v8h-8V200z M144,200h8v8h-8V200z M168,200h8v8h-8V200z M176,200h8v8h-8V200z
		 M184,200h8v8h-8V200z M192,200h8v8h-8V200z M200,200h8v8h-8V200z M208,200h8v8h-8V200z M216,200h8v8h-8V200z M8,208h8v8H8V208z
		 M24,208h8v8h-8V208z M32,208h8v8h-8V208z M40,208h8v8h-8V208z M56,208h8v8h-8V208z M72,208h8v8h-8V208z M80,208h8v8h-8V208z
		 M88,208h8v8h-8V208z M104,208h8v8h-8V208z M112,208h8v8h-8V208z M120,208h8v8h-8V208z M136,208h8v8h-8V208z M160,208h8v8h-8V208z
		 M192,208h8v8h-8V208z M208,208h8v8h-8V208z M224,208h8v8h-8V208z M232,208h8v8h-8V208z M8,216h8v8H8V216z M24,216h8v8h-8V216z
		 M32,216h8v8h-8V216z M40,216h8v8h-8V216z M56,216h8v8h-8V216z M72,216h8v8h-8V216z M80,216h8v8h-8V216z M112,216h8v8h-8V216z
		 M120,216h8v8h-8V216z M128,216h8v8h-8V216z M160,216h8v8h-8V216z M176,216h8v8h-8V216z M184,216h8v8h-8V216z M192,216h8v8h-8V216z
		 M200,216h8v8h-8V216z M208,216h8v8h-8V216z M216,216h8v8h-8V216z M224,216h8v8h-8V216z M8,224h8v8H8V224z M56,224h8v8h-8V224z
		 M72,224h8v8h-8V224z M104,224h8v8h-8V224z M112,224h8v8h-8V224z M136,224h8v8h-8V224z M152,224h8v8h-8V224z M168,224h8v8h-8V224z
		 M184,224h8v8h-8V224z M192,224h8v8h-8V224z M208,224h8v8h-8V224z M224,224h8v8h-8V224z M8,232h8v8H8V232z M16,232h8v8h-8V232z
		 M24,232h8v8h-8V232z M32,232h8v8h-8V232z M40,232h8v8h-8V232z M48,232h8v8h-8V232z M56,232h8v8h-8V232z M72,232h8v8h-8V232z
		 M88,232h8v8h-8V232z M104,232h8v8h-8V232z M120,232h8v8h-8V232z M128,232h8v8h-8V232z M144,232h8v8h-8V232z M160,232h8v8h-8V232z
		 M176,232h8v8h-8V232z M192,232h8v8h-8V232z M200,232h8v8h-8V232z M208,232h8v8h-8V232z M216,232h8v8h-8V232z"/>
</g>
</svg>
